<svg xmlns="http://www.w3.org/2000/svg" viewBox="0 0 240.8 104.08"><defs><style>.cls-1{fill:#fff;}</style></defs><title>DW_logo</title><g id="Layer_2" data-name="Layer 2"><g id="Layer_2-2" data-name="Layer 2"><polygon points="232.27 104.08 233.1 103.91 233.43 103.53 233.39 103.85 233.52 103.82 234.01 100.23 233.52 100.43 234.18 97.9 232.53 97.45 232.36 96.39 233.27 96.3 233.76 94.4 233.27 94.61 234.33 90.5 235.16 90.72 236.47 85.66 234.32 82.03 233.83 82.23 236.21 78.14 236.54 78.57 235.88 76.02 236.7 74.55 236.04 73.69 237.52 68 238.92 67.7 239.41 62.42 240.23 62.65 239.9 60.52 240.8 60.43 240.8 58.79 240.77 58.73 239.98 58.51 239.93 57.72 239.37 57.85 239.07 56.82 237.38 56.58 237.85 56.31 236.16 56.07 235.86 55.04 235.82 55.37 234.34 53.51 233.45 53.71 232.78 52.29 231.09 52.05 232.44 51.59 231.25 50.76 232.23 49.91 230.92 50.05 230.99 48.46 231.97 47.46 233.53 45.2 231.84 44.96 233.49 44.15 232.89 43.4 231.79 41.92 230.48 42.06 228.62 39.82 228.15 40.08 227.18 37.63 226.72 37.9 226.8 37.25 225.07 37.33 225.32 35.39 225.62 32.98 225.16 33.25 224.27 30.15 224.86 28.92 223.55 29.06 221.69 26.82 221.52 24.95 220.75 24.18 221.77 23 221.09 21.59 222.53 20.47 223.84 20.33 223.03 19.89 222.82 18.21 224.56 18.12 226.92 16.48 223.26 12.99 222.5 8.92 223.34 9.04 223 8.33 225.83 6.43 214.43 4.8 213.96 5.07 209.19 5.38 206.74 4.37 205.81 4.9 205.85 4.57 202.85 4.48 202.9 4.15 195.63 3.78 195.97 4.49 189.63 3.58 181.86 3.8 182.28 3.86 176.79 3.08 168.51 3.88 166.02 3.19 164.67 3.66 161.25 3.5 161.29 3.18 155.25 3.31 155.63 3.69 154.45 2.86 153.85 4.1 145.41 2.9 145.79 3.28 134.17 3.28 132.52 2.71 129.44 3.26 129.1 2.56 117.4 3.2 115.37 2.25 97.58 0.36 89.66 1.44 75.61 0.72 51.82 1.08 48.58 0 19.93 0.75 19.84 0.75 19.29 1.66 16.67 1.95 16.97 2.98 15.62 3.44 16.72 4.92 17.98 5.1 15.49 7.72 16.09 9.78 14.35 9.86 14.18 11.16 13.8 10.78 13.63 12.07 12.28 12.54 12.62 13.25 10.09 16.18 9.79 18.45 8.11 21.51 7.26 21.39 7.01 23.34 5.62 24.13 4.48 26.27 3.29 28.75 3.63 29.45 1.22 31.42 1.52 32.45 0.72 32.01 0.89 34.02 0 34.22 3.34 35.02 7.1 35.89 7.43 36.6 9.08 37.16 10.43 36.69 10.39 37.02 11.66 37.2 16.22 38.51 17.15 37.98 17.07 41.93 18.76 42.17 18.84 44.82 20.24 47.33 21.08 47.45 19.69 48.24 20.58 48.04 19.31 51.16 18.51 50.71 20.11 51.6 20.37 52.96 21.21 53.08 21.42 54.76 20.54 54.96 21.13 57.02 20.28 56.9 20.45 62.21 19.1 62.68 18.34 68.51 19.11 69.28 18.47 70.84 19.45 73.28 19.06 72.9 17.21 77.26 17.67 76.99 20.25 80.33 19.57 85.51 18.73 85.39 18.18 89.6 18.65 89.34 18.39 91.28 17.51 91.49 17.8 92.52 19.49 92.76 19.16 95.35 19.62 95.09 19.58 98.71 18.23 99.18 18.52 100.21 16.2 101.53 21.31 101.93 22.07 102.7 21.73 101.99 25.62 101.88 27.27 102.45 32.42 102.52 32.04 102.14 37.62 102.27 37.58 102.59 47.08 102.3 47.04 102.62 58.23 102.57 58.19 102.89 62.16 102.13 62.12 102.46 69.89 102.25 74.49 103.23 85.69 101.61 94.34 101.97 99.03 101.97 108.39 101.97 122.44 101.97 136.7 102.96 139.27 103 139.36 102.35 141.85 103.03 142.78 102.51 158.66 102.79 158.62 103.11 160.77 103.09 160.39 102.7 162.46 103.33 167.24 103.02 167.19 103.34 169.86 102.73 170.62 103.5 186.54 103.46 186.16 103.07 187.47 102.93 193.38 103.77 194.31 103.24 194.27 103.57 202.47 103.42 202.42 103.74 209.39 103.08 226.92 103.93 229.12 103.58 229.08 103.9 232.27 104.08"/><path class="cls-1" d="M56.81,31.46a9.92,9.92,0,0,1-.15,2.27l-.1.68a8.31,8.31,0,0,0,0,1.5,4.13,4.13,0,0,1-.13,1.49,25.89,25.89,0,0,1-1.89,5c-.16.3-.31.6-.45.92s-.24.51-.37.78a7.76,7.76,0,0,1-2.32,2.55,11.67,11.67,0,0,1-4,2,11.92,11.92,0,0,1-4,.35,7.71,7.71,0,0,0-1.92,0h-.69a1.86,1.86,0,0,1-1.24-.45,2.5,2.5,0,0,1-.7-1,4.28,4.28,0,0,1-.1-1.78,6.85,6.85,0,0,0,0-1.5,6.84,6.84,0,0,1,.06-1.81,9.8,9.8,0,0,0,.17-2.59,8,8,0,0,1,.12-2,.35.35,0,0,0,0-.13,7.38,7.38,0,0,0-.05-2.1,10,10,0,0,1,.08-3.36,8.63,8.63,0,0,0,.07-2.33,0,0,0,0,1,0,0,38.29,38.29,0,0,1-.14-5.56q.06-.64.15-1.26a6.22,6.22,0,0,0,.05-1.61,20.23,20.23,0,0,1-.1-2.69c.06-.89.11-1.76.14-2.63a2,2,0,0,1,2-2,13.63,13.63,0,0,1,2.55.09,8.23,8.23,0,0,0,1.92,0,3.67,3.67,0,0,1,2.09.34l.11,0a12.82,12.82,0,0,0,1.85.7,3.15,3.15,0,0,1,1.32.65,7.88,7.88,0,0,1,1,1.06L53,18l1.83,2.2a5.11,5.11,0,0,1,1,2c.13.58.28,1.16.44,1.74a8.4,8.4,0,0,1,.36,2.42c0,.7,0,1.39.07,2.08A24.75,24.75,0,0,1,56.81,31.46Zm-5.23,2a2.57,2.57,0,0,0,.12-.85,5,5,0,0,0-.05-.81A12.2,12.2,0,0,1,51.59,29a6.11,6.11,0,0,0,0-1.54,7,7,0,0,0-.8-2.79A15.54,15.54,0,0,1,49.89,23l0-.07a5.69,5.69,0,0,0-2.52-2.5,1.67,1.67,0,0,0-2.19.41,2.14,2.14,0,0,0-.38.95,5.54,5.54,0,0,0-.1,1c0,.25,0,.52-.06.79A6.68,6.68,0,0,0,44.7,26a6.14,6.14,0,0,1,.06,2.22c-.1.83-.18,1.66-.26,2.5a12.6,12.6,0,0,0,.11,2.46l.07.65,0,.47a20.14,20.14,0,0,1,.13,2.2,25.7,25.7,0,0,1-.4,4,3.31,3.31,0,0,0,.2,1.84,1.43,1.43,0,0,0,1.81.82,3.11,3.11,0,0,0,.84-.35,7.58,7.58,0,0,0,3.06-3.58c.06-.12.11-.25.16-.38l.22-.55a4.66,4.66,0,0,0,.54-2.43A6.26,6.26,0,0,1,51.58,33.48Z"/><path class="cls-1" d="M65.57,39.07a9.21,9.21,0,0,0,.21,1.63,12.68,12.68,0,0,1,.09,4.17c-.07.65-.12,1.31-.14,2A5.51,5.51,0,0,1,65.54,48a1.89,1.89,0,0,1-1.85,1.39A5,5,0,0,1,62,49.16a2,2,0,0,1-1.43-1.63,5,5,0,0,1-.09-1A5.71,5.71,0,0,0,60.37,45a5.71,5.71,0,0,1-.1-1.54,8.56,8.56,0,0,0,0-1.24,7.54,7.54,0,0,1,.12-1.9,8,8,0,0,0,.08-1.82,10.51,10.51,0,0,1,.17-2.69,13.39,13.39,0,0,0,.09-2.37c0-.18,0-.35,0-.52,0-.94-.09-1.88-.14-2.8a5.49,5.49,0,0,1,.11-1.22,6.37,6.37,0,0,0-.05-2.18,8.34,8.34,0,0,1,0-2.59,18,18,0,0,0,0-2.85,23,23,0,0,1,.13-4.46,3.63,3.63,0,0,1,.45-1.32,1.78,1.78,0,0,1,1.3-1,4.14,4.14,0,0,1,1.82,0,2,2,0,0,1,1.78,2.34,25,25,0,0,0-.06,4.06,2,2,0,0,1,0,.34v.11l0,.66c0,.52,0,1,0,1.55a11.58,11.58,0,0,1-.21,2.34V26a8.71,8.71,0,0,0,0,2.55A15.22,15.22,0,0,1,66,31.42a5,5,0,0,0,0,.77q0,.41,0,.81a18.65,18.65,0,0,1-.22,2v0a1,1,0,0,0,0,.32c0,.55,0,1.11-.1,1.66S65.58,38.37,65.57,39.07Z"/><path class="cls-1" d="M87.61,37.54a15.6,15.6,0,0,0,.29,3.05,5.94,5.94,0,0,1-.66,4.24,5.21,5.21,0,0,0-.24.47l-.11.17a6.09,6.09,0,0,1-1.43,1.87,13.49,13.49,0,0,0-1.15,1.12,4,4,0,0,1-2.12,1.18,10.64,10.64,0,0,1-3.43.3,8.63,8.63,0,0,1-4-.8,6.24,6.24,0,0,1-3.41-3.21.34.34,0,0,0-.06-.15c-.16-.39-.34-.77-.51-1.14a4.58,4.58,0,0,1-.38-2.55,1.38,1.38,0,0,1,1.33-1.37l.9-.11.64-.08a2.19,2.19,0,0,1,2.16,1c.15.23.3.47.44.73a3.42,3.42,0,0,0,2.77,1.85A3.49,3.49,0,0,0,80.43,44a2.87,2.87,0,0,0,1.33-.84,2.5,2.5,0,0,0,.66-1.58,16.75,16.75,0,0,0,0-2.65,2.8,2.8,0,0,0-.81-1.75c-.47-.47-.93-.95-1.36-1.46a3.59,3.59,0,0,0-1.61-1,3.71,3.71,0,0,0-.47-.16l-.91-.36a10.31,10.31,0,0,1-3.7-2.53c-.18-.2-.37-.4-.56-.59a9.15,9.15,0,0,1-1-1.21,6.39,6.39,0,0,1-1.16-3.38,14.27,14.27,0,0,0-.29-2.68,3.38,3.38,0,0,1,.16-1.75l.09-.32c.33-1,.64-2,.91-3A3.82,3.82,0,0,1,73,16.83a9.19,9.19,0,0,1,6.74-2,11.07,11.07,0,0,1,4.36,1.41A3.41,3.41,0,0,1,85,17c.65.68,1.27,1.38,1.87,2.09a5.49,5.49,0,0,1,1.12,3,1.61,1.61,0,0,1-.8,1.59,3.31,3.31,0,0,1-2.53.45,2.69,2.69,0,0,1-2-1.45,6.09,6.09,0,0,0-1.25-1.56A2.23,2.23,0,0,0,79,20.53l-.13,0a5,5,0,0,0-2,.91,2.72,2.72,0,0,0-1.08,2.82l0,.17a5.32,5.32,0,0,1,.14.78,3.73,3.73,0,0,0,1.53,2.59,16.87,16.87,0,0,0,4.21,2.54,9.44,9.44,0,0,1,3,2A6.9,6.9,0,0,1,86.2,34a16,16,0,0,1,1.24,2.44A2.61,2.61,0,0,1,87.61,37.54Z"/><path class="cls-1" d="M108.63,37.93a15.5,15.5,0,0,0,.29,3,5.93,5.93,0,0,1-.66,4.24c-.09.16-.17.32-.24.47a1.63,1.63,0,0,1-.11.17,6.13,6.13,0,0,1-1.43,1.88,15.07,15.07,0,0,0-1.15,1.11A3.91,3.91,0,0,1,103.21,50a10.64,10.64,0,0,1-3.43.3,8.5,8.5,0,0,1-4-.8,6.19,6.19,0,0,1-3.41-3.2.44.44,0,0,0-.06-.16q-.24-.57-.51-1.14a4.58,4.58,0,0,1-.38-2.55,1.39,1.39,0,0,1,1.33-1.37l.9-.11.64-.07a2.16,2.16,0,0,1,2.16,1c.15.23.3.48.44.74a3.43,3.43,0,0,0,2.77,1.84,3.38,3.38,0,0,0,1.75-.11,3,3,0,0,0,1.33-.84,2.55,2.55,0,0,0,.66-1.59,16.76,16.76,0,0,0,0-2.65,2.82,2.82,0,0,0-.81-1.75c-.47-.46-.93-1-1.36-1.46a3.77,3.77,0,0,0-1.61-1L99.17,35a9.68,9.68,0,0,1-.92-.36,10.29,10.29,0,0,1-3.7-2.52c-.18-.21-.37-.4-.56-.59a9.23,9.23,0,0,1-1-1.22A6.39,6.39,0,0,1,91.8,26.9a14.27,14.27,0,0,0-.29-2.68,3.39,3.39,0,0,1,.16-1.75c0-.1.06-.2.09-.32.33-1,.64-2,.91-3A3.78,3.78,0,0,1,94,17.21a9.11,9.11,0,0,1,6.73-2,10.9,10.9,0,0,1,4.36,1.4,3.66,3.66,0,0,1,.92.73c.65.68,1.27,1.37,1.87,2.08a5.52,5.52,0,0,1,1.12,3,1.63,1.63,0,0,1-.8,1.59,3.35,3.35,0,0,1-2.53.44,2.66,2.66,0,0,1-2-1.45,6.09,6.09,0,0,0-1.25-1.56,2.27,2.27,0,0,0-2.35-.58l-.12,0a5,5,0,0,0-2,.91,2.74,2.74,0,0,0-1.08,2.82l0,.18a5,5,0,0,1,.14.77,3.71,3.71,0,0,0,1.53,2.59,16.87,16.87,0,0,0,4.21,2.54,9.61,9.61,0,0,1,3,2,6.9,6.9,0,0,1,1.47,1.63,16.46,16.46,0,0,1,1.24,2.44A2.66,2.66,0,0,1,108.63,37.93Z"/><path class="cls-1" d="M118.11,40a9.21,9.21,0,0,0,.21,1.63,12.68,12.68,0,0,1,.09,4.17c-.07.65-.11,1.31-.14,2a5.51,5.51,0,0,1-.19,1.16,1.89,1.89,0,0,1-1.85,1.39,5,5,0,0,1-1.66-.22,2,2,0,0,1-1.43-1.63,5.12,5.12,0,0,1-.09-1,5.71,5.71,0,0,0-.14-1.59,5.71,5.71,0,0,1-.1-1.54,8.56,8.56,0,0,0,0-1.24,7.54,7.54,0,0,1,.12-1.9,8,8,0,0,0,.08-1.82,10.08,10.08,0,0,1,.18-2.69,13.47,13.47,0,0,0,.08-2.38c0-.17,0-.34,0-.51,0-.94-.09-1.88-.14-2.8a5.49,5.49,0,0,1,.11-1.22,6.37,6.37,0,0,0,0-2.18,8.34,8.34,0,0,1,0-2.59,19.32,19.32,0,0,0,.06-2.85,23,23,0,0,1,.12-4.46,3.83,3.83,0,0,1,.45-1.32,1.78,1.78,0,0,1,1.3-1,4.14,4.14,0,0,1,1.82,0,2,2,0,0,1,1.78,2.34,26.21,26.21,0,0,0-.06,4.06,2,2,0,0,1,0,.34V23c0,.52,0,1,0,1.55a10.9,10.9,0,0,1-.21,2.34V27a8.38,8.38,0,0,0,0,2.55,14.43,14.43,0,0,1,.14,2.87,5,5,0,0,0,0,.77q0,.41,0,.81a18.65,18.65,0,0,1-.22,2v0a1,1,0,0,0,0,.32c0,.55,0,1.11-.1,1.66S118.12,39.33,118.11,40Z"/><path class="cls-1" d="M141,33a9.83,9.83,0,0,1-.15,2.26l-.1.69a7.37,7.37,0,0,0,0,1.49,4.17,4.17,0,0,1-.13,1.5,25.89,25.89,0,0,1-1.89,5c-.17.3-.31.6-.45.91s-.24.52-.38.79a7.68,7.68,0,0,1-2.31,2.54,11.69,11.69,0,0,1-8,2.34,7.79,7.79,0,0,0-1.93,0H125a1.77,1.77,0,0,1-1.24-.45,2.37,2.37,0,0,1-.7-1,4.28,4.28,0,0,1-.1-1.78,7.53,7.53,0,0,0,0-1.5,6.93,6.93,0,0,1,.06-1.82,9.7,9.7,0,0,0,.17-2.58,8.07,8.07,0,0,1,.12-2,.27.27,0,0,0,0-.12,7.75,7.75,0,0,0-.05-2.1,9.72,9.72,0,0,1,.08-3.36,8.64,8.64,0,0,0,.07-2.33s0,0,0,0a38.39,38.39,0,0,1-.14-5.57q.06-.63.15-1.26a6.61,6.61,0,0,0,.05-1.6,20.31,20.31,0,0,1-.1-2.7c.06-.88.11-1.76.14-2.62a2,2,0,0,1,2-2,13.66,13.66,0,0,1,2.55.09,8.81,8.81,0,0,0,1.92,0,3.75,3.75,0,0,1,2.09.33l.11,0a12.82,12.82,0,0,0,1.85.7,3.15,3.15,0,0,1,1.32.65,7.33,7.33,0,0,1,1,1.06l.77.93L139,21.75a5.13,5.13,0,0,1,1.06,2c.13.59.28,1.17.44,1.74a8.47,8.47,0,0,1,.36,2.43c0,.7,0,1.39.07,2.07A24.9,24.9,0,0,1,141,33Zm-5.24,2a2.63,2.63,0,0,0,.13-.85,5.23,5.23,0,0,0-.05-.82,12.1,12.1,0,0,1-.06-2.82,6.11,6.11,0,0,0,0-1.54,6.91,6.91,0,0,0-.81-2.8,18.32,18.32,0,0,1-.91-1.7.16.16,0,0,0,0-.07,5.69,5.69,0,0,0-2.52-2.5,1.67,1.67,0,0,0-2.19.41,2.14,2.14,0,0,0-.38,1,5.52,5.52,0,0,0-.1,1c0,.26,0,.52-.06.79a6.66,6.66,0,0,0,.11,2.44,6.44,6.44,0,0,1,.06,2.23c-.1.83-.19,1.66-.26,2.5a12.64,12.64,0,0,0,.11,2.46l.07.64,0,.47A20.33,20.33,0,0,1,129,38a25.45,25.45,0,0,1-.4,4,3.33,3.33,0,0,0,.2,1.85,1.44,1.44,0,0,0,1.81.82,3.47,3.47,0,0,0,.84-.35,7.58,7.58,0,0,0,3.06-3.58,3,3,0,0,0,.15-.38l.23-.55a4.58,4.58,0,0,0,.53-2.43A6.7,6.7,0,0,1,135.74,35Z"/><path class="cls-1" d="M160.18,46.42a1.94,1.94,0,0,1,1.5,2.15,3.05,3.05,0,0,1-1.15,2.3,3.32,3.32,0,0,1-2.07.63c-.58,0-1.16,0-1.73-.09a11.19,11.19,0,0,0-2.65,0,16.05,16.05,0,0,1-3.1,0c-.7-.06-1.4-.14-2.1-.23s-1.2-.16-1.81-.23a1.63,1.63,0,0,1-1.55-1.7v-.08c0-.33,0-.67-.05-1a11.47,11.47,0,0,0-.19-2.1,5.78,5.78,0,0,1,.07-2,5.44,5.44,0,0,0,0-2.09,6,6,0,0,1,.07-2.89,4.67,4.67,0,0,0,0-1.86,6.66,6.66,0,0,1-.06-1.41q0-.9,0-1.8v0c0-.73,0-1.46,0-2.19a13.78,13.78,0,0,1,.25-3.33c0-.24.07-.47.1-.7a12.42,12.42,0,0,0-.1-5,5.78,5.78,0,0,1-.16-1.71v-.54a11,11,0,0,1,.12-2,2.75,2.75,0,0,1,.75-1.59,2.11,2.11,0,0,1,1.47-.64c1.46-.1,2.91-.2,4.37-.28a6,6,0,0,1,.73,0h.32a7.3,7.3,0,0,1,1.81.14,18.62,18.62,0,0,0,2.78.23c.56,0,1.1,0,1.65,0A2.13,2.13,0,0,1,161.66,18a4.68,4.68,0,0,1,.23,1.52,2.17,2.17,0,0,1-.5,1.23,2,2,0,0,1-1,.67,2.84,2.84,0,0,1-1,.15,26.71,26.71,0,0,0-3.47.2,8.23,8.23,0,0,1-1.11,0h-.21a16.67,16.67,0,0,0-1.74.06,1.7,1.7,0,0,0-1.69,1.38,7.58,7.58,0,0,0-.11,2.33,7.47,7.47,0,0,1,0,1.77A7.14,7.14,0,0,0,151,28.8a2.14,2.14,0,0,0,.74,1.54,3,3,0,0,0,1.55.66,8.15,8.15,0,0,0,1.78,0,8.22,8.22,0,0,1,3.41.45,1.79,1.79,0,0,1,1,.85,3.33,3.33,0,0,1,.38,2.21,2,2,0,0,1-1.37,1.62,3.57,3.57,0,0,1-1.21.24,20.13,20.13,0,0,1-2.2-.08,9.39,9.39,0,0,0-2.54,0,1.77,1.77,0,0,0-1.68,1.75c-.1.9-.2,1.79-.29,2.69,0,.2,0,.4,0,.6a15.44,15.44,0,0,1,.06,1.67v.51c0,.2,0,.4,0,.6a1.52,1.52,0,0,0,1.11,1.41,5.16,5.16,0,0,0,2.34.24,13.37,13.37,0,0,1,3.68.19l1.22.22.64.09Z"/><path class="cls-1" d="M184.29,29.92l0,.92q0,.81-.09,1.62a2.1,2.1,0,0,0,0,.56,2.3,2.3,0,0,1,0,.28,23.46,23.46,0,0,1-.11,2.5,1.58,1.58,0,0,0,0,.32A22.23,22.23,0,0,0,184,40a11.79,11.79,0,0,1,0,2,19.43,19.43,0,0,0-.1,3.14,6.58,6.58,0,0,1-.14,1.6,8.38,8.38,0,0,0-.11,2.55,1.62,1.62,0,0,1-.26,1.14,1.64,1.64,0,0,1-.9.63,3,3,0,0,1-.88.16,13,13,0,0,1-2.57,0,2.43,2.43,0,0,1-2-1.49,14.15,14.15,0,0,1-.8-1.94c-.14-.44-.29-.88-.47-1.31s-.22-.66-.34-1-.23-.66-.35-1a25,25,0,0,1-1.21-4.26,10.27,10.27,0,0,0-.37-1.5c-.11-.31-.21-.61-.29-.93,0-.1-.05-.21-.08-.32a7.9,7.9,0,0,0-.26-1,1.92,1.92,0,0,0-.37-.67.73.73,0,0,0-.81-.29.79.79,0,0,0-.54.67,1.56,1.56,0,0,0,0,.68,4.61,4.61,0,0,1-.08,2.36,2.83,2.83,0,0,0,0,1.58,4.88,4.88,0,0,1,0,2.31,11.56,11.56,0,0,0-.14,4.27,4,4,0,0,1-.3,2.37,2.37,2.37,0,0,1-1.8,1.38,3.48,3.48,0,0,1-1.54,0,2,2,0,0,1-1.33-1.1,3.68,3.68,0,0,1-.27-2.72,4.46,4.46,0,0,0,.08-2.12,5.93,5.93,0,0,1-.14-1.62q0-1.3,0-2.61a9.57,9.57,0,0,1,.24-2.27,11.54,11.54,0,0,0,.16-3,.69.69,0,0,1,0-.13,1.12,1.12,0,0,1,0-.32,9.19,9.19,0,0,0-.12-2.87,7.26,7.26,0,0,1,0-2.63,12.57,12.57,0,0,0,.12-4.15,9.26,9.26,0,0,1,.09-2.46,14.23,14.23,0,0,0,0-3.63,2.63,2.63,0,0,1,.83-2.23,1.92,1.92,0,0,1,.48-.34,6.25,6.25,0,0,1,2.75-.4,2.24,2.24,0,0,1,1.81,1.21,13.83,13.83,0,0,1,.77,1.6c.12.29.24.57.37.84a7.16,7.16,0,0,1,.6,2.11,4.54,4.54,0,0,0,.16.66c.27.85.52,1.7.74,2.54A4.45,4.45,0,0,0,175,26.5a13,13,0,0,1,1.27,3.29c0,.09,0,.17.08.24.13.49.26,1,.38,1.48.05.25.11.49.18.73a5.29,5.29,0,0,0,.2.71,3.2,3.2,0,0,0,.16.39,1.28,1.28,0,0,0,.32.37.61.61,0,0,0,.47.12.86.86,0,0,0,.67-.63,5.72,5.72,0,0,0,.22-1.26,5.23,5.23,0,0,0,0-.56v-.25a20.24,20.24,0,0,0-.07-2.21l0-.26a9.14,9.14,0,0,1,0-1.28,26.51,26.51,0,0,0,0-5c0-.26,0-.52,0-.79v-.22c0-.61,0-1.23,0-1.86v-.43a4.71,4.71,0,0,1,.1-.85,1.85,1.85,0,0,1,1.72-1.47,5.22,5.22,0,0,1,2.18.26,2,2,0,0,1,1.42,1.86,7,7,0,0,1-.07,1.37,8,8,0,0,0,0,2.68,5.41,5.41,0,0,1-.07,2.37,5.36,5.36,0,0,0-.06,2.39A10,10,0,0,1,184.29,29.92Z"/><path class="cls-1" d="M204.8,17a2,2,0,0,1,2.32,1.8,5.27,5.27,0,0,1-.05,2,2,2,0,0,1-1.57,1.62,8.18,8.18,0,0,1-2.08.26q-.64,0-1.29.09a1.44,1.44,0,0,0-1.37,1.38c0,.39,0,.77,0,1.16a20,20,0,0,1-.19,2.31,9.45,9.45,0,0,0-.05,1.51c0,1.26-.06,2.52-.18,3.79a6.82,6.82,0,0,1-.1.79c-.05.28-.09.56-.12.83a9.2,9.2,0,0,0,.13,2l0,.3a8.11,8.11,0,0,1-.11,2.46A14.74,14.74,0,0,0,200,41a10.09,10.09,0,0,0,.1,1.65,9.58,9.58,0,0,1,0,2.27,24.27,24.27,0,0,0-.1,2.84,7.63,7.63,0,0,1-.34,2.28,2.1,2.1,0,0,1-1.74,1.62l-.19,0c-.32.06-.64.11-1,.15a1.46,1.46,0,0,1-1.56-.88,4.55,4.55,0,0,1-.42-1.92c-.06-1.32-.11-2.66-.16-4,0-.64-.06-1.28-.07-1.93a9.62,9.62,0,0,1,.07-1.6,4.51,4.51,0,0,0,.07-.53,20.8,20.8,0,0,0,0-3.06,9,9,0,0,1,.15-2.42,18.79,18.79,0,0,0,.27-3.18,4.55,4.55,0,0,0-.07-.9.32.32,0,0,0,0-.13c-.08-.77-.14-1.53-.17-2.29l0-.62a25,25,0,0,1,.24-4.06,1.89,1.89,0,0,0-1.86-2.21,9.4,9.4,0,0,0-1.5,0,5.14,5.14,0,0,1-.55.06,4.78,4.78,0,0,1-1.31-.13,1.53,1.53,0,0,1-1.09-1,6.41,6.41,0,0,1-.4-2.42A1.74,1.74,0,0,1,190,16.87a10,10,0,0,1,1.52-.06,14,14,0,0,0,1.63-.06,8.55,8.55,0,0,1,2.14.11,8.35,8.35,0,0,0,3,.07,16.18,16.18,0,0,1,2.51-.14,11.75,11.75,0,0,1,2,.14A8.29,8.29,0,0,0,204.8,17Z"/><path class="cls-1" d="M63.78,63.23c0,.69,0,1.37,0,2.06a16.32,16.32,0,0,1-.05,2.88,8.66,8.66,0,0,0,0,1.69,4,4,0,0,1-.13,1.5,3.75,3.75,0,0,0-.1,1.79,11,11,0,0,1,.09,3.34c0,.2,0,.41,0,.62a9.83,9.83,0,0,1-.22,1.41c0,.1,0,.2-.07.3a3.86,3.86,0,0,0,.08,1.69,6,6,0,0,1,.18,1.89c0,.27,0,.54,0,.81a16,16,0,0,1-.2,2.48,6.28,6.28,0,0,0-.06,1.06,5.71,5.71,0,0,1,0,.58,2.14,2.14,0,0,1-.63,1.57,1.84,1.84,0,0,1-1.38.6,10.19,10.19,0,0,1-2.13-.28,3.34,3.34,0,0,1-1.21-.68,8.15,8.15,0,0,1-.92-1A5.52,5.52,0,0,1,56.18,86a2.52,2.52,0,0,0-.13-.33,27.44,27.44,0,0,1-1-3.07c-.17-.66-.36-1.31-.56-1.94-.1-.3-.19-.61-.28-.92a2.79,2.79,0,0,1-.1-.39,17.72,17.72,0,0,0-1.7-4.57,4.32,4.32,0,0,0-.54-.8.87.87,0,0,0-.69-.3.81.81,0,0,0-.61.41,2.33,2.33,0,0,0-.32.72A10.86,10.86,0,0,1,48.82,78a7.66,7.66,0,0,0-.92,2c-.09.34-.2.68-.32,1a2.48,2.48,0,0,1-.15.41,14.23,14.23,0,0,0-.53,1.68,10.79,10.79,0,0,1-1.33,3,.55.55,0,0,0-.11.17q-.42.67-.78,1.38a2.28,2.28,0,0,1-1.86,1.23,15.32,15.32,0,0,1-2.25,0A2.07,2.07,0,0,1,39,88.26a1.87,1.87,0,0,1-.45-1,8.16,8.16,0,0,1,0-1.48V85q0-.65,0-1.17c0-.59,0-1.15-.05-1.67a5.71,5.71,0,0,1,.08-1.37c0-.17.06-.34.08-.49a4.91,4.91,0,0,0,0-1,11.44,11.44,0,0,1,.14-3.14,13.51,13.51,0,0,0,0-4.53,6,6,0,0,1-.06-1.46c0-.33,0-.66,0-1A9.11,9.11,0,0,1,39,67.32a15.3,15.3,0,0,0,.2-2.61v-.79a5.57,5.57,0,0,0-.12-1.42,5.12,5.12,0,0,1,0-2.43,11.92,11.92,0,0,0,.26-2.59,4.36,4.36,0,0,0,0-.51,4,4,0,0,1,0-.69,1.86,1.86,0,0,1,1.61-2,5.16,5.16,0,0,1,1.5-.14,1.83,1.83,0,0,1,1.59,1,4.63,4.63,0,0,1,.59,2.9,10.69,10.69,0,0,0,.06,2.65,6.63,6.63,0,0,1-.12,2,8.43,8.43,0,0,0-.23,2.78,2.33,2.33,0,0,1,0,.53v0a13.75,13.75,0,0,0,.18,3,8,8,0,0,1,.09,1.69,2.77,2.77,0,0,0,0,.49.42.42,0,0,0,.28.34.47.47,0,0,0,.42-.11,1.06,1.06,0,0,0,.22-.29,10.48,10.48,0,0,0,1.34-3,4.09,4.09,0,0,1,.77-1.53,5.28,5.28,0,0,0,1-2.31A2.6,2.6,0,0,1,49,63.6a1.38,1.38,0,0,1,.89-.71,8.09,8.09,0,0,1,2.59-.21A1.87,1.87,0,0,1,54.12,64a11.39,11.39,0,0,0,.8,1.74,11.68,11.68,0,0,1,.84,2.41.06.06,0,0,0,0,0,11,11,0,0,0,.55,1.55c.15.37.29.74.42,1.12a1.41,1.41,0,0,0,.34.54A.54.54,0,0,0,58,71.3a.89.89,0,0,0,.2-.55c0-.53,0-1.06,0-1.59a14.25,14.25,0,0,0,0-2A10.23,10.23,0,0,1,58.27,65c.14-1,.25-2.07.34-3.11a4.81,4.81,0,0,0-.11-1.25,5,5,0,0,1,0-2.07,7.89,7.89,0,0,0,.18-1.81,1.79,1.79,0,0,1,.54-1.41,2.11,2.11,0,0,1,1.36-.51c.4,0,.8,0,1.2.05a2,2,0,0,1,2,1.94,3,3,0,0,1,0,.85,6.51,6.51,0,0,0,0,1.59l0,.51a4.31,4.31,0,0,1,0,.88,13.44,13.44,0,0,0-.07,2.46s0,0,0,.06Z"/><path class="cls-1" d="M86.53,69.51a5.61,5.61,0,0,1,.08,2.61,3.11,3.11,0,0,0,0,1,8.46,8.46,0,0,1-.09,2.56,8.94,8.94,0,0,0-.11,1.71,30.46,30.46,0,0,1-.23,4.38,5,5,0,0,0,.08,1.55,8.56,8.56,0,0,1,.12,1.6,5.7,5.7,0,0,0,0,1,9,9,0,0,1-.22,2.48,1.46,1.46,0,0,1-1,1.09,5,5,0,0,1-2.78.31A1.55,1.55,0,0,1,81,88,12.45,12.45,0,0,0,81.08,86a29.43,29.43,0,0,1,.08-4.3c0-.12,0-.26,0-.4l0-1.48,0-2.22a3,3,0,0,0-.15-1.12A1.85,1.85,0,0,0,80,75.34a2.6,2.6,0,0,0-1.26-.18,10.13,10.13,0,0,1-3.06,0,1.91,1.91,0,0,0-2.2,1.24,3.28,3.28,0,0,0-.22,2.44,4.46,4.46,0,0,1,0,2.56,4.24,4.24,0,0,0-.15,1v.12a16.79,16.79,0,0,1-.1,1.88,7,7,0,0,0,0,1.37A6,6,0,0,1,72.83,88a2,2,0,0,1-1.7,1.51,4.65,4.65,0,0,1-1.82-.06,1.75,1.75,0,0,1-1.4-1.65A4.14,4.14,0,0,1,68,87a6.92,6.92,0,0,0,0-1.82.24.24,0,0,0,0-.08c-.09-.72-.16-1.43-.22-2.15a9,9,0,0,1,.11-2.26,10,10,0,0,0,0-2.38A5.36,5.36,0,0,1,68,76.81a17,17,0,0,0,.36-3.18,6.79,6.79,0,0,0-.2-1.72A6.67,6.67,0,0,1,68,69.43a6.55,6.55,0,0,0,0-.88,15,15,0,0,1,.18-3.14,2.69,2.69,0,0,0,0-.32,6,6,0,0,0,0-2.07,5.12,5.12,0,0,1,.06-2.4,4.11,4.11,0,0,0,.06-2.09,5.78,5.78,0,0,1-.12-1.5,2.13,2.13,0,0,1,2.09-2.17,3.77,3.77,0,0,1,1.79.25,2,2,0,0,1,1.12,1,4.79,4.79,0,0,1,.46,1.81,1,1,0,0,1,0,.15,10.31,10.31,0,0,1,.05,1.65,12.43,12.43,0,0,1-.16,2,2.13,2.13,0,0,1,0,.25,12.22,12.22,0,0,0,.05,3,9.2,9.2,0,0,1-.05,2.82,3.9,3.9,0,0,0,0,.58,1.27,1.27,0,0,0,1.19,1.32,2.63,2.63,0,0,0,.56,0,4.27,4.27,0,0,1,1.13,0,14.55,14.55,0,0,0,2.63.11h.15a2.14,2.14,0,0,0,1.73-.71,1.81,1.81,0,0,0,.37-.66,4.17,4.17,0,0,0,.13-2.52,6.56,6.56,0,0,1-.14-2.61,12.63,12.63,0,0,0,.08-2,2.36,2.36,0,0,0,0-.37,12.58,12.58,0,0,1,.25-2.67q.06-.31.12-.66a4.92,4.92,0,0,1,.09-.64A2,2,0,0,1,84,55.18a3.36,3.36,0,0,1,1.14.12,1.8,1.8,0,0,1,1.17,1.2A10.08,10.08,0,0,1,86.7,59c0,.83.09,1.66.17,2.51a5.88,5.88,0,0,1-.08,2.13,5.56,5.56,0,0,0-.07,1.82,4.68,4.68,0,0,1-.07,1.35l-.09.38a2.09,2.09,0,0,1-.08.34A4.32,4.32,0,0,0,86.53,69.51Z"/><path class="cls-1" d="M96.29,79.79a9.21,9.21,0,0,0,.21,1.63,12.68,12.68,0,0,1,.09,4.17c-.07.65-.11,1.31-.14,2a4.93,4.93,0,0,1-.19,1.16,1.89,1.89,0,0,1-1.85,1.39,5,5,0,0,1-1.66-.22,2,2,0,0,1-1.42-1.63,3.82,3.82,0,0,1-.09-1,6.13,6.13,0,0,0-.15-1.59,6.14,6.14,0,0,1-.1-1.54,7.34,7.34,0,0,0,0-1.24,7.54,7.54,0,0,1,.12-1.9,7.43,7.43,0,0,0,.08-1.82,10.51,10.51,0,0,1,.18-2.69,12.5,12.5,0,0,0,.08-2.37c0-.18,0-.35,0-.52,0-.94-.09-1.88-.14-2.8a5.49,5.49,0,0,1,.11-1.22,6.13,6.13,0,0,0,0-2.18,8.34,8.34,0,0,1,0-2.59,20.8,20.8,0,0,0,0-2.85,23.78,23.78,0,0,1,.12-4.46A3.83,3.83,0,0,1,92,56.2a1.78,1.78,0,0,1,1.31-1,4.09,4.09,0,0,1,1.81,0,2,2,0,0,1,1.78,2.34,25,25,0,0,0,0,4.06c0,.12,0,.23,0,.34v.77c0,.52,0,1,0,1.55a10.3,10.3,0,0,1-.21,2.34v.11a8.38,8.38,0,0,0-.05,2.55,14.43,14.43,0,0,1,.14,2.87c0,.25,0,.51,0,.77s0,.54,0,.81a18.69,18.69,0,0,1-.23,2v0a1,1,0,0,0,0,.32c0,.55,0,1.11-.1,1.66S96.31,79.09,96.29,79.79Z"/><path class="cls-1" d="M118.33,78.26a15.6,15.6,0,0,0,.29,3,5.89,5.89,0,0,1-.66,4.24c-.08.16-.17.31-.24.47l-.11.17a6.06,6.06,0,0,1-1.42,1.87A13.61,13.61,0,0,0,115,89.18a4,4,0,0,1-2.12,1.18,10.61,10.61,0,0,1-3.42.3,8.67,8.67,0,0,1-4-.8,6.24,6.24,0,0,1-3.41-3.21.34.34,0,0,0-.06-.15q-.24-.59-.51-1.14a4.58,4.58,0,0,1-.38-2.55,1.39,1.39,0,0,1,1.33-1.37l.9-.11.64-.08a2.19,2.19,0,0,1,2.16,1,7.43,7.43,0,0,1,.44.73,3.44,3.44,0,0,0,2.77,1.85,3.48,3.48,0,0,0,1.75-.12,2.9,2.9,0,0,0,1.34-.84,2.61,2.61,0,0,0,.66-1.58,18,18,0,0,0,0-2.65,2.84,2.84,0,0,0-.8-1.75c-.48-.47-.93-1-1.37-1.46a3.61,3.61,0,0,0-1.6-1c-.16-.06-.32-.12-.47-.16L108,75a10.28,10.28,0,0,1-3.69-2.53c-.18-.2-.37-.4-.57-.59a9.15,9.15,0,0,1-1-1.21,6.38,6.38,0,0,1-1.15-3.38,14.29,14.29,0,0,0-.3-2.68,3.38,3.38,0,0,1,.16-1.75c0-.1.06-.21.1-.32.33-1,.63-2,.91-3a3.71,3.71,0,0,1,1.36-1.94,9.16,9.16,0,0,1,6.73-2A11,11,0,0,1,114.83,57a3.63,3.63,0,0,1,.93.72c.64.69,1.26,1.38,1.86,2.09a5.49,5.49,0,0,1,1.12,3,1.59,1.59,0,0,1-.8,1.59,3.3,3.3,0,0,1-2.53.45,2.7,2.7,0,0,1-2-1.45,6.09,6.09,0,0,0-1.25-1.56,2.21,2.21,0,0,0-2.34-.58l-.13,0a5.08,5.08,0,0,0-2,.91A2.75,2.75,0,0,0,106.57,65l0,.17a4.26,4.26,0,0,1,.14.78,3.73,3.73,0,0,0,1.53,2.59,16.93,16.93,0,0,0,4.22,2.54,9.51,9.51,0,0,1,3,2,6.9,6.9,0,0,1,1.47,1.63,15.12,15.12,0,0,1,1.24,2.44A2.46,2.46,0,0,1,118.33,78.26Z"/><path class="cls-1" d="M140.13,61.83a13.93,13.93,0,0,0,.79,2.75,5.32,5.32,0,0,1,.16,2.74,27.85,27.85,0,0,1-.54,2.84l-.24,1a2.86,2.86,0,0,1-.82,1.5l-1.13,1.14q-.85.9-1.74,1.74A5.35,5.35,0,0,1,133,77a8.69,8.69,0,0,1-1.77-.09,6,6,0,0,0-1.12,0,2.29,2.29,0,0,0-2.26,2.1,8.48,8.48,0,0,0-.12,2.14c0,.44,0,.88,0,1.3,0,2-.06,4-.2,6a3.34,3.34,0,0,1-.5,1.55,1.68,1.68,0,0,1-1.19.86,4.19,4.19,0,0,1-2-.06,1.78,1.78,0,0,1-1.34-1.61c0-.24,0-.49,0-.73a18.63,18.63,0,0,0-.08-2.59,6,6,0,0,1,.09-1.47.16.16,0,0,0,0-.09,7.46,7.46,0,0,0,.07-1.77c-.06-1.09-.1-2.17-.11-3.25,0-.36,0-.72,0-1.07,0-1.25-.08-2.48-.17-3.71a6.68,6.68,0,0,1,.16-1.94,6.4,6.4,0,0,0,.1-3,5.36,5.36,0,0,1,.08-2.22,12.47,12.47,0,0,0,.25-4c0-.44,0-.89,0-1.33v-.92c0-.52,0-1.05,0-1.58a6,6,0,0,1,.3-2.24,1.64,1.64,0,0,1,1.2-1.16,4.7,4.7,0,0,1,1.18-.06h1a19.09,19.09,0,0,0,3.45-.26,3.71,3.71,0,0,1,2.09.21,7.57,7.57,0,0,0,2,.4,4.88,4.88,0,0,1,3.67,1.86c.28.35.56.7.86,1s.38.45.56.68A3.84,3.84,0,0,1,140.13,61.83ZM135.76,67a3.75,3.75,0,0,0-.17-2.36,7.73,7.73,0,0,0-.64-1.16,3.28,3.28,0,0,0-1.88-1.36l-1-.26-1.28-.36a3.7,3.7,0,0,0-1-.11,1.22,1.22,0,0,0-1,.5,1.61,1.61,0,0,0-.31.61,8.37,8.37,0,0,0-.37,2.29,9.37,9.37,0,0,1-.09,1.68,4.24,4.24,0,0,0,0,1.33,5.3,5.3,0,0,1,.05,1.26v.79a1.63,1.63,0,0,0,.12.52,1.7,1.7,0,0,0,1.61,1.08,7.43,7.43,0,0,0,3.41-.63,3,3,0,0,0,1.5-1.29A8.12,8.12,0,0,0,135.76,67Z"/><path class="cls-1" d="M158.59,86.55a1.94,1.94,0,0,1,1.5,2.15A3,3,0,0,1,158.94,91a3.27,3.27,0,0,1-2.07.64c-.58,0-1.16,0-1.73-.09a11.19,11.19,0,0,0-2.65,0,16.9,16.9,0,0,1-3.1,0q-1-.09-2.1-.24l-1.81-.22a1.63,1.63,0,0,1-1.55-1.7v-.08c0-.33,0-.67-.05-1a11.47,11.47,0,0,0-.19-2.1,5.79,5.79,0,0,1,.08-2,5.64,5.64,0,0,0,0-2.09,6,6,0,0,1,.07-2.89,4.49,4.49,0,0,0,0-1.86,8.32,8.32,0,0,1-.06-1.41q0-.9,0-1.8v0c0-.73,0-1.46,0-2.19a13.78,13.78,0,0,1,.25-3.33c0-.24.07-.47.1-.7a12.41,12.41,0,0,0-.1-5,6.13,6.13,0,0,1-.16-1.71v-.54a11,11,0,0,1,.12-2,2.71,2.71,0,0,1,.76-1.59,2.07,2.07,0,0,1,1.46-.64c1.46-.1,2.91-.2,4.37-.28a5.93,5.93,0,0,1,.73,0h.32a7.3,7.3,0,0,1,1.81.14,18.62,18.62,0,0,0,2.78.23c.56,0,1.11,0,1.65,0a2.13,2.13,0,0,1,2.17,1.62,4.68,4.68,0,0,1,.23,1.52,2.11,2.11,0,0,1-.5,1.23,2,2,0,0,1-1,.67,2.84,2.84,0,0,1-1,.15,26.46,26.46,0,0,0-3.46.2,8.41,8.41,0,0,1-1.12,0H153a16.76,16.76,0,0,0-1.74.06,1.7,1.7,0,0,0-1.69,1.38,7.58,7.58,0,0,0-.11,2.33,7.47,7.47,0,0,1,0,1.77,7.93,7.93,0,0,0-.05,1.46,2.12,2.12,0,0,0,.75,1.54,2.92,2.92,0,0,0,1.55.66,8.06,8.06,0,0,0,1.77,0,8.29,8.29,0,0,1,3.42.45,1.8,1.8,0,0,1,1,.85,3.4,3.4,0,0,1,.39,2.21,2.05,2.05,0,0,1-1.38,1.62,3.56,3.56,0,0,1-1.2.24,18,18,0,0,1-2.21-.09,9.81,9.81,0,0,0-2.54,0,1.77,1.77,0,0,0-1.68,1.75c-.1.9-.2,1.79-.29,2.69,0,.2,0,.4,0,.6a15.44,15.44,0,0,1,.06,1.67v.51c0,.2,0,.4,0,.6a1.52,1.52,0,0,0,1.11,1.41,5.2,5.2,0,0,0,2.35.24,12.94,12.94,0,0,1,3.67.19l1.22.22.64.09Z"/><path class="cls-1" d="M178.31,76.09a2.44,2.44,0,0,0-.79,2.4,28.73,28.73,0,0,0,1.32,5.16c.12.34.23.69.34,1a17.45,17.45,0,0,0,1.17,2.82,5.89,5.89,0,0,1,.54,1.79,3.16,3.16,0,0,1-.08,1.33,1.42,1.42,0,0,1-1.37,1.08,6.85,6.85,0,0,1-2.65-.35,2.32,2.32,0,0,1-1.3-1.22,5.62,5.62,0,0,1-.49-1.52,12.57,12.57,0,0,0-1.11-3.28q-.36-.66-.75-1.32a3.62,3.62,0,0,1-.49-1.54,9.32,9.32,0,0,0-1.05-3.25,2.18,2.18,0,0,0-.61-.74,1.15,1.15,0,0,0-1.19-.28,1.11,1.11,0,0,0-.72,1,5.51,5.51,0,0,0,0,1.22,18.87,18.87,0,0,1-.06,3l-.05.65c0,.42-.08.85-.09,1.28a7.06,7.06,0,0,1-.11,1.3,12.93,12.93,0,0,0-.15,2.16v.06a6.56,6.56,0,0,1,0,1,1.64,1.64,0,0,1-1.93,1.52,8.25,8.25,0,0,1-1.39-.24,1.79,1.79,0,0,1-1.48-1.74c0-.18,0-.37,0-.57-.07-.85-.11-1.69-.12-2.53,0-.49,0-1-.08-1.46a6.24,6.24,0,0,1,.11-2.28,5.76,5.76,0,0,0,.17-1.5c0-.78,0-1.57.07-2.37a17.26,17.26,0,0,0-.11-2.27,5,5,0,0,1,0-1.09v-.26a17.86,17.86,0,0,0,0-4.62,7.51,7.51,0,0,1,0-2.27c0-.11,0-.22.05-.32.12-.92.21-1.85.28-2.77a9.9,9.9,0,0,0-.08-2.66,5.28,5.28,0,0,1,0-1.94A3.79,3.79,0,0,0,164,59a1.85,1.85,0,0,1,.27-1.53,2.22,2.22,0,0,1,1.16-.76,6.54,6.54,0,0,1,1.46-.23l2,0,.82,0a9.74,9.74,0,0,1,1.94.19q.46.08,1,.12l.92.06a10.54,10.54,0,0,1,1.13.09,5.93,5.93,0,0,1,3.12,1.4,14.59,14.59,0,0,1,2.46,2.57A13.06,13.06,0,0,1,182,64.35a9.45,9.45,0,0,1,.4,3,9.79,9.79,0,0,1-1.09,4.39,22.09,22.09,0,0,1-1.92,3.15A6.32,6.32,0,0,1,178.31,76.09ZM176,70.27a3.62,3.62,0,0,0,.9-2.3,10.73,10.73,0,0,0-.54-3.28,1.93,1.93,0,0,0-1.14-1.24,9.72,9.72,0,0,0-1-.38l-.13,0a11.92,11.92,0,0,0-2.47-.62c-1.34-.11-2,.47-2.11,1.74v.68a7.22,7.22,0,0,1-.11,1.54,8.48,8.48,0,0,0-.14,1.84,9.37,9.37,0,0,0,.17,2.4,2,2,0,0,0,.66,1.17,1.8,1.8,0,0,0,1.38.36l.37,0,.49-.12q.49-.11,1-.18A4.21,4.21,0,0,0,176,70.27Z"/><path class="cls-1" d="M202.48,79.8a15.43,15.43,0,0,0,.29,3,6,6,0,0,1-.66,4.25,5.06,5.06,0,0,0-.24.46,1,1,0,0,1-.11.17,6.13,6.13,0,0,1-1.43,1.88,15.07,15.07,0,0,0-1.15,1.11,3.91,3.91,0,0,1-2.12,1.18,10.64,10.64,0,0,1-3.43.31,8.63,8.63,0,0,1-4-.8,6.24,6.24,0,0,1-3.41-3.21.34.34,0,0,0-.06-.15c-.16-.39-.34-.77-.51-1.14a4.62,4.62,0,0,1-.38-2.56A1.37,1.37,0,0,1,186.64,83l.9-.12.64-.07a2.19,2.19,0,0,1,2.16,1c.15.23.3.47.44.73a3.42,3.42,0,0,0,2.77,1.85,3.49,3.49,0,0,0,1.75-.12,3,3,0,0,0,1.33-.84,2.5,2.5,0,0,0,.66-1.58,16.88,16.88,0,0,0,0-2.66,2.77,2.77,0,0,0-.81-1.74c-.47-.47-.93-1-1.36-1.46a3.59,3.59,0,0,0-1.61-1,3.71,3.71,0,0,0-.47-.16l-.91-.36A10.31,10.31,0,0,1,188.4,74c-.18-.2-.37-.4-.56-.59a9.84,9.84,0,0,1-1-1.21,6.42,6.42,0,0,1-1.16-3.38,14.18,14.18,0,0,0-.29-2.68,3.38,3.38,0,0,1,.16-1.75l.09-.32c.33-1,.64-2,.91-3a3.8,3.8,0,0,1,1.36-2,9.22,9.22,0,0,1,6.74-1.95A11.07,11.07,0,0,1,199,58.54a3.41,3.41,0,0,1,.92.72c.65.68,1.27,1.38,1.87,2.09a5.49,5.49,0,0,1,1.12,3,1.63,1.63,0,0,1-.8,1.59,3.31,3.31,0,0,1-2.53.45,2.69,2.69,0,0,1-2.05-1.45,6.09,6.09,0,0,0-1.25-1.56,2.23,2.23,0,0,0-2.35-.58l-.13,0a5.1,5.1,0,0,0-2,.9,2.74,2.74,0,0,0-1.08,2.83l0,.17a5.44,5.44,0,0,1,.14.77,3.75,3.75,0,0,0,1.53,2.6,16.84,16.84,0,0,0,4.21,2.53,9.64,9.64,0,0,1,3,2,6.71,6.71,0,0,1,1.47,1.63,16,16,0,0,1,1.24,2.44A2.59,2.59,0,0,1,202.48,79.8Z"/></g></g></svg>